<?xml version="1.0" encoding="UTF-8"?>
<!DOCTYPE svg PUBLIC "-//W3C//DTD SVG 1.1//EN" "http://www.w3.org/Graphics/SVG/1.1/DTD/svg11.dtd">
<svg xmlns="http://www.w3.org/2000/svg" version="1.1" width="500px" height="500px" style="shape-rendering:geometricPrecision; text-rendering:geometricPrecision; image-rendering:optimizeQuality; fill-rule:evenodd; clip-rule:evenodd" xmlns:xlink="http://www.w3.org/1999/xlink">
<g><path style="opacity:1" fill="#e3e1dc" d="M -0.5,-0.5 C 166.167,-0.5 332.833,-0.5 499.5,-0.5C 499.5,166.167 499.5,332.833 499.5,499.5C 332.833,499.5 166.167,499.5 -0.5,499.5C -0.5,332.833 -0.5,166.167 -0.5,-0.5 Z"/></g>
<g><path style="opacity:1" fill="#dddbd6" d="M 274.5,301.5 C 274.5,298.5 274.5,295.5 274.5,292.5C 271.763,291.969 269.096,291.136 266.5,290C 267.833,289.667 269.167,289.333 270.5,289C 285.862,288.446 301.195,288.946 316.5,290.5C 332.666,290.721 347.332,286.221 360.5,277C 372.914,269.254 383.414,259.421 392,247.5C 402.25,213.181 389.75,192.348 354.5,185C 342.408,184.047 330.408,184.714 318.5,187C 307.329,187.485 296.162,187.318 285,186.5C 275.322,187.001 265.655,187.668 256,188.5C 242.533,186.673 229.033,185.006 215.5,183.5C 204.166,184.5 192.832,185.5 181.5,186.5C 170.48,185.698 159.48,184.698 148.5,183.5C 134.814,183.784 122.481,187.951 111.5,196C 102.12,211.134 98.6197,227.634 101,245.5C 103.792,276.786 120.958,292.12 152.5,291.5C 176.494,290.439 200.494,290.439 224.5,291.5C 224.337,293.857 224.503,296.19 225,298.5C 226.774,300.651 228.274,302.984 229.5,305.5C 229.167,305.833 228.833,306.167 228.5,306.5C 226.343,305.95 224.343,305.283 222.5,304.5C 225.09,303.949 225.756,302.616 224.5,300.5C 200.684,298.608 176.85,298.274 153,299.5C 135.187,300.895 119.52,295.895 106,284.5C 98.124,274.211 93.7907,262.545 93,249.5C 91.1375,232.763 92.8042,216.43 98,200.5C 106.956,185.094 120.456,176.928 138.5,176C 152.518,175.744 166.518,176.244 180.5,177.5C 192.163,176.767 203.83,176.1 215.5,175.5C 229.379,176.341 243.212,177.674 257,179.5C 273.799,177.386 290.632,177.052 307.5,178.5C 319.334,177.542 331.167,176.542 343,175.5C 363.458,175.072 380.791,182.072 395,196.5C 409,217.5 409,238.5 395,259.5C 383.657,270.412 371.491,280.246 358.5,289C 345.512,296.555 331.512,299.721 316.5,298.5C 304.961,298.393 293.461,297.727 282,296.5C 279.863,297.077 277.696,297.41 275.5,297.5C 275.768,299.099 275.434,300.432 274.5,301.5 Z"/></g>
<g><path style="opacity:1" fill="#d6d4cf" d="M 274.5,301.5 C 273.566,302.568 273.232,303.901 273.5,305.5C 276.674,305.998 280.007,305.998 283.5,305.5C 283.5,307.5 283.5,309.5 283.5,311.5C 282.837,309.958 282.17,308.291 281.5,306.5C 280.5,307 279.5,307.5 278.5,308C 281.167,309.333 281.167,310.667 278.5,312C 280.134,312.494 281.801,312.66 283.5,312.5C 282.866,313.947 281.699,314.613 280,314.5C 275.381,314.322 271.214,313.322 267.5,311.5C 266.542,311.047 265.708,310.381 265,309.5C 264.768,310.737 264.268,311.737 263.5,312.5C 262.391,311.71 261.058,311.21 259.5,311C 263.709,310.206 264.375,308.372 261.5,305.5C 256.214,308.202 256.548,309.036 262.5,308C 259.885,308.612 258.219,310.112 257.5,312.5C 256.686,310.369 256.186,308.036 256,305.5C 250.546,303.436 248.046,305.436 248.5,311.5C 241.431,311.257 241.097,310.423 247.5,309C 241.163,308.163 241.497,307.497 248.5,307C 246.19,306.503 243.857,306.337 241.5,306.5C 241.5,308.5 241.5,310.5 241.5,312.5C 243.167,312.5 244.833,312.5 246.5,312.5C 244.306,313.766 241.972,313.766 239.5,312.5C 236.019,315.092 232.519,315.092 229,312.5C 226.157,313.763 223.324,313.763 220.5,312.5C 220.343,311.127 220.51,309.793 221,308.5C 225.542,314.343 227.042,313.676 225.5,306.5C 224.749,307.376 224.249,308.376 224,309.5C 220.362,305.541 218.862,306.541 219.5,312.5C 218.698,311.048 218.198,309.382 218,307.5C 217,309.167 216,310.833 215,312.5C 214.586,312.043 214.086,311.709 213.5,311.5C 211.774,313.03 209.774,314.03 207.5,314.5C 205.347,314.439 204.014,313.439 203.5,311.5C 205.717,312.369 208.05,312.702 210.5,312.5C 210.191,309.654 208.525,308.154 205.5,308C 206.833,307.667 208.167,307.333 209.5,307C 206.644,305.094 204.977,305.927 204.5,309.5C 206.308,309.491 207.975,309.991 209.5,311C 207.455,311.49 205.455,311.323 203.5,310.5C 203.261,308.533 203.594,306.699 204.5,305C 208.039,304.718 211.539,304.218 215,303.5C 217.54,303.494 220.04,303.827 222.5,304.5C 224.343,305.283 226.343,305.95 228.5,306.5C 228.833,306.167 229.167,305.833 229.5,305.5C 228.274,302.984 226.774,300.651 225,298.5C 224.503,296.19 224.337,293.857 224.5,291.5C 200.494,290.439 176.494,290.439 152.5,291.5C 120.958,292.12 103.792,276.786 101,245.5C 98.6197,227.634 102.12,211.134 111.5,196C 122.481,187.951 134.814,183.784 148.5,183.5C 159.48,184.698 170.48,185.698 181.5,186.5C 192.832,185.5 204.166,184.5 215.5,183.5C 229.033,185.006 242.533,186.673 256,188.5C 265.655,187.668 275.322,187.001 285,186.5C 296.162,187.318 307.329,187.485 318.5,187C 330.408,184.714 342.408,184.047 354.5,185C 389.75,192.348 402.25,213.181 392,247.5C 383.414,259.421 372.914,269.254 360.5,277C 347.332,286.221 332.666,290.721 316.5,290.5C 301.195,288.946 285.862,288.446 270.5,289C 269.167,289.333 267.833,289.667 266.5,290C 269.096,291.136 271.763,291.969 274.5,292.5C 274.5,295.5 274.5,298.5 274.5,301.5 Z"/></g>
<g><path style="opacity:1" fill="#d1cfcb" d="M 143.5,189.5 C 155.857,190.132 168.191,191.132 180.5,192.5C 191.998,191.463 203.498,190.463 215,189.5C 228.559,190.057 241.892,192.057 255,195.5C 264.273,193.794 273.607,192.461 283,191.5C 291.864,192.23 300.698,193.23 309.5,194.5C 326.204,190.411 343.038,189.411 360,191.5C 367.503,194.086 374.503,197.753 381,202.5C 383.753,207.008 386.753,211.341 390,215.5C 393.974,227.292 392.307,238.292 385,248.5C 377.559,256.964 369.059,264.13 359.5,270C 352.97,277.765 344.637,282.099 334.5,283C 317.168,284.641 299.834,284.475 282.5,282.5C 261.525,284.054 240.525,285.054 219.5,285.5C 197.662,284.398 175.829,284.398 154,285.5C 140.548,285.792 128.048,282.625 116.5,276C 111.215,267.286 108.048,257.786 107,247.5C 105.591,232.878 106.924,218.545 111,204.5C 113.946,199.555 118.112,196.055 123.5,194C 130.147,191.835 136.813,190.335 143.5,189.5 Z"/></g>
<g><path style="opacity:1" fill="#c8c7c2" d="M 358.5,195.5 C 367.508,196.087 375.008,199.754 381,206.5C 392.665,221.7 392.165,236.534 379.5,251C 372.93,255.774 366.263,260.274 359.5,264.5C 355.745,268.727 352.078,272.893 348.5,277C 344.082,279.072 339.582,279.906 335,279.5C 328.886,280.228 322.72,280.895 316.5,281.5C 305.203,280.391 293.87,279.724 282.5,279.5C 260.168,280.53 237.835,281.53 215.5,282.5C 194.822,280.093 174.156,280.093 153.5,282.5C 146.562,281.897 139.729,280.897 133,279.5C 126.811,279.753 121.478,277.42 117,272.5C 113.008,266.802 111.175,260.635 111.5,254C 110.702,248.352 110.035,242.685 109.5,237C 110.824,230.054 110.824,223.387 109.5,217C 110.732,210.871 113.065,205.204 116.5,200C 120.61,197.684 124.943,195.851 129.5,194.5C 130.086,194.709 130.586,195.043 131,195.5C 137.035,194.064 143.201,193.397 149.5,193.5C 162.169,194.486 174.669,195.486 187,196.5C 204.017,192.019 221.184,191.519 238.5,195C 241.798,196.122 245.298,197.622 249,199.5C 258.036,200.131 266.87,198.464 275.5,194.5C 281.188,194.578 286.855,194.578 292.5,194.5C 299.87,197.501 307.037,198.834 314,198.5C 328.675,193.327 343.508,192.327 358.5,195.5 Z"/></g>
<g><path style="opacity:1" fill="#bcbbb7" d="M 358.5,195.5 C 366.862,197.608 374.028,201.942 380,208.5C 381.951,213.141 383.951,217.807 386,222.5C 386.681,232.976 383.515,242.142 376.5,250C 370.609,254.113 364.276,257.446 357.5,260C 353.994,264.999 350.327,269.833 346.5,274.5C 343.633,275.774 340.633,276.607 337.5,277C 324.167,277.667 310.833,277.667 297.5,277C 292.569,275.227 287.569,273.727 282.5,272.5C 276.116,274.136 269.783,275.636 263.5,277C 256.486,277.624 249.486,277.458 242.5,276.5C 238.094,276.796 233.76,277.463 229.5,278.5C 214.878,277.683 200.211,277.183 185.5,277C 183.091,276.065 180.591,275.565 178,275.5C 162.603,278.836 147.103,279.336 131.5,277C 129.129,276.265 126.795,275.432 124.5,274.5C 122.976,272.142 120.976,270.309 118.5,269C 117.475,266.929 116.642,264.762 116,262.5C 115.84,258.713 115.174,255.046 114,251.5C 113.648,237.642 113.981,223.976 115,210.5C 115.2,208.68 116.034,207.347 117.5,206.5C 118.203,204.284 119.536,202.451 121.5,201C 126.226,198.647 131.226,197.314 136.5,197C 144.833,196.333 153.167,196.333 161.5,197C 167.891,198.412 174.225,199.912 180.5,201.5C 205.771,193.928 230.604,194.928 255,204.5C 261.026,201.778 267.192,199.278 273.5,197C 285.974,194.986 297.807,196.82 309,202.5C 324.729,195.13 341.229,192.797 358.5,195.5 Z"/></g>
<g><path style="opacity:1" fill="#70706d" d="M 308.5,224.5 C 313.015,224.272 317.348,224.938 321.5,226.5C 321.156,230.053 320.489,233.553 319.5,237C 320.628,238.468 321.294,240.135 321.5,242C 320.675,247.192 320.675,252.192 321.5,257C 321.561,259.261 320.894,261.261 319.5,263C 320.38,264.356 320.714,265.856 320.5,267.5C 318.486,267.392 316.82,268.058 315.5,269.5C 315.703,267.956 316.37,266.622 317.5,265.5C 316.975,264.808 316.308,264.308 315.5,264C 316.624,263.751 317.624,263.251 318.5,262.5C 316.219,260.447 313.719,258.78 311,257.5C 310.544,256.256 311.044,255.423 312.5,255C 311.552,254.517 310.552,254.351 309.5,254.5C 309.5,252.167 309.5,249.833 309.5,247.5C 310.978,247.762 312.311,247.429 313.5,246.5C 311.5,245.833 309.5,245.167 307.5,244.5C 308.718,243.197 308.385,242.197 306.5,241.5C 307.025,240.808 307.692,240.308 308.5,240C 307.027,239.29 306.36,238.124 306.5,236.5C 308.856,238.557 309.856,241.224 309.5,244.5C 311.167,244.5 312.833,244.5 314.5,244.5C 314.201,246.604 314.534,248.604 315.5,250.5C 316.251,249.624 316.751,248.624 317,247.5C 317.72,240.464 317.553,233.464 316.5,226.5C 314.194,226.007 311.861,225.674 309.5,225.5C 308.833,225.5 308.5,225.167 308.5,224.5 Z"/></g>
<g><path style="opacity:1" fill="#6a6967" d="M 193.5,216.5 C 195.199,216.34 196.866,216.506 198.5,217C 196.047,217.727 193.714,218.727 191.5,220C 192.609,221.813 191.942,222.646 189.5,222.5C 189.227,224.451 189.893,225.951 191.5,227C 190.344,229.44 190.344,231.94 191.5,234.5C 189.805,236.568 189.138,238.734 189.5,241C 190.43,242.194 191.097,243.527 191.5,245C 190.003,246.662 188.337,248.162 186.5,249.5C 189.193,251.27 192.193,251.937 195.5,251.5C 195.5,252.5 195.5,253.5 195.5,254.5C 193.5,254.5 191.5,254.5 189.5,254.5C 190.991,256.605 191.658,258.772 191.5,261C 190.5,261.833 189.5,262.667 188.5,263.5C 189.687,264.519 190.687,265.686 191.5,267C 188.325,266.947 185.658,267.78 183.5,269.5C 180.717,268.784 177.884,268.117 175,267.5C 171.65,268.975 168.15,269.642 164.5,269.5C 169.462,268.779 173.795,266.612 177.5,263C 185.5,262.333 185.5,261.667 177.5,261C 180.226,260.818 182.893,260.318 185.5,259.5C 177.606,258.193 177.606,257.527 185.5,257.5C 183.951,253.027 182.951,248.361 182.5,243.5C 183.421,244.981 184.588,246.314 186,247.5C 186.772,247.355 187.439,247.022 188,246.5C 188.004,237.022 188.838,227.689 190.5,218.5C 192.179,218.715 193.179,218.048 193.5,216.5 Z"/></g>
<g><path style="opacity:1" fill="#636260" d="M 121.5,245.5 C 122.895,248.516 124.228,251.683 125.5,255C 124.264,256.085 122.931,256.918 121.5,257.5C 122.833,253.5 122.833,249.5 121.5,245.5 Z"/></g>
<g><path style="opacity:1" fill="#8b8a87" d="M 381.5,226.5 C 380.56,232.729 378.727,238.729 376,244.5C 374.442,246.359 372.609,247.859 370.5,249C 364.472,250.746 358.472,252.746 352.5,255C 349.468,258.214 348.135,262.047 348.5,266.5C 347.163,267.315 346.163,268.482 345.5,270C 328.697,271.73 312.031,271.897 295.5,270.5C 302.022,270.823 308.355,270.49 314.5,269.5C 314.833,269.5 315.167,269.5 315.5,269.5C 316.82,268.058 318.486,267.392 320.5,267.5C 321.289,267.783 321.956,268.283 322.5,269C 329.833,269.667 337.167,269.667 344.5,269C 345.833,268 345.833,267 344.5,266C 346.847,264.914 346.847,263.581 344.5,262C 344.888,257.812 345.222,253.645 345.5,249.5C 355.132,250.672 364.132,248.838 372.5,244C 374.739,240.268 376.906,236.434 379,232.5C 379.18,230.512 379.014,228.512 378.5,226.5C 379.5,226.5 380.5,226.5 381.5,226.5 Z"/></g>
<g><path style="opacity:1" fill="#a9a8a4" d="M 231.5,200.5 C 221.494,200.334 211.494,200.5 201.5,201C 197.347,201.384 193.347,202.384 189.5,204C 188.061,204.991 187.061,206.324 186.5,208C 185.5,208.167 184.5,208.333 183.5,208.5C 178.303,207.236 173.303,205.403 168.5,203C 155.993,202.173 143.66,202.34 131.5,203.5C 127.622,203.024 124.288,204.024 121.5,206.5C 120.399,207.848 119.399,209.348 118.5,211C 120.931,212.092 120.931,213.259 118.5,214.5C 117.084,230.771 117.75,246.771 120.5,262.5C 122.348,264.733 124.015,267.066 125.5,269.5C 126.609,270.29 127.942,270.79 129.5,271C 140.5,271.667 151.5,271.667 162.5,271C 163.416,270.722 164.082,270.222 164.5,269.5C 168.15,269.642 171.65,268.975 175,267.5C 177.884,268.117 180.717,268.784 183.5,269.5C 184.263,270.268 185.263,270.768 186.5,271C 210.685,271.236 234.851,271.403 259,271.5C 262.167,271.333 265.333,271.167 268.5,271C 269.942,270.623 270.942,269.79 271.5,268.5C 273.469,264.214 276.802,262.547 281.5,263.5C 284.592,263.507 287.592,264.007 290.5,265C 291.893,266.171 292.727,267.671 293,269.5C 293.671,270.252 294.504,270.586 295.5,270.5C 312.031,271.897 328.697,271.73 345.5,270C 346.163,268.482 347.163,267.315 348.5,266.5C 348.703,268.39 348.037,269.89 346.5,271C 344.167,272 341.833,273 339.5,274C 325.5,274.667 311.5,274.667 297.5,274C 286.792,268.078 276.125,268.078 265.5,274C 257.656,274.578 249.823,274.411 242,273.5C 220.434,276.421 198.934,276.088 177.5,272.5C 161.57,274.489 145.57,274.989 129.5,274C 123.603,272.103 119.769,268.27 118,262.5C 116.436,243.808 116.269,225.141 117.5,206.5C 121.488,203.008 126.155,200.841 131.5,200C 144.167,199.333 156.833,199.333 169.5,200C 173.298,201.877 177.298,203.044 181.5,203.5C 198.049,199.547 214.715,198.547 231.5,200.5 Z"/></g>
<g><path style="opacity:1" fill="#868582" d="M 301.5,222.5 C 301.414,223.496 301.748,224.329 302.5,225C 303.766,225.309 304.933,225.809 306,226.5C 307.033,231.465 309.533,235.465 313.5,238.5C 314.086,238.291 314.586,237.957 315,237.5C 315.667,234.5 315.667,231.5 315,228.5C 313.124,227.391 311.291,226.391 309.5,225.5C 311.861,225.674 314.194,226.007 316.5,226.5C 317.553,233.464 317.72,240.464 317,247.5C 316.751,248.624 316.251,249.624 315.5,250.5C 314.534,248.604 314.201,246.604 314.5,244.5C 312.833,244.5 311.167,244.5 309.5,244.5C 309.856,241.224 308.856,238.557 306.5,236.5C 304.993,234.711 303.66,232.711 302.5,230.5C 304.092,228.775 303.758,227.775 301.5,227.5C 300.71,226.206 299.71,225.039 298.5,224C 299.244,222.961 300.244,222.461 301.5,222.5 Z"/></g>
<g><path style="opacity:1" fill="#7f7e7c" d="M 271.5,204.5 C 279.684,204.174 287.684,204.508 295.5,205.5C 287.493,205.334 279.493,205.5 271.5,206C 269.845,207.444 269.178,209.278 269.5,211.5C 267.473,211.338 265.473,211.505 263.5,212C 263.815,214.098 263.815,216.098 263.5,218C 259.976,220.872 255.976,222.705 251.5,223.5C 251.33,224.822 251.663,225.989 252.5,227C 254.5,227.333 256.5,227.667 258.5,228C 261.094,230.848 260.427,232.848 256.5,234C 257.308,234.308 257.975,234.808 258.5,235.5C 256.363,237.236 255.696,239.236 256.5,241.5C 254.494,244.531 252.494,247.531 250.5,250.5C 245.786,250.827 241.12,250.493 236.5,249.5C 237.867,248.16 239.2,246.827 240.5,245.5C 241.288,243.058 240.955,240.558 239.5,238C 242.129,234.801 241.796,231.801 238.5,229C 237.207,228.51 235.873,228.343 234.5,228.5C 233.571,227.685 232.571,226.852 231.5,226C 234.628,225.159 237.628,224.325 240.5,223.5C 241.718,222.839 243.051,222.172 244.5,221.5C 244.291,220.914 243.957,220.414 243.5,220C 245.921,218.789 248.255,217.623 250.5,216.5C 251.675,216.281 252.675,216.614 253.5,217.5C 247.213,218.369 243.88,222.036 243.5,228.5C 244.037,232.829 244.537,237.162 245,241.5C 248.089,244.309 250.422,243.643 252,239.5C 252.167,237.667 252.333,235.833 252.5,234C 251.585,229.898 250.918,225.731 250.5,221.5C 256.658,220.669 260.658,217.336 262.5,211.5C 263.406,210.035 264.739,209.035 266.5,208.5C 267.386,207.675 267.719,206.675 267.5,205.5C 268.959,205.567 270.292,205.234 271.5,204.5 Z"/></g>
<g><path style="opacity:1" fill="#a4a39f" d="M 370.5,208.5 C 372.826,209.953 375.326,211.286 378,212.5C 380,215.833 382,219.167 384,222.5C 384.008,242.328 374.175,253.661 354.5,256.5C 353.036,259.003 351.869,261.67 351,264.5C 350.292,265.381 349.458,266.047 348.5,266.5C 348.135,262.047 349.468,258.214 352.5,255C 358.472,252.746 364.472,250.746 370.5,249C 372.609,247.859 374.442,246.359 376,244.5C 378.727,238.729 380.56,232.729 381.5,226.5C 382.404,225.791 382.737,224.791 382.5,223.5C 380.833,222.833 379.167,222.167 377.5,221.5C 376.793,220.683 375.46,219.683 373.5,218.5C 372.614,217.675 372.281,216.675 372.5,215.5C 373.873,215.657 375.207,215.49 376.5,215C 374.266,214.031 372.266,212.698 370.5,211C 371.598,210.23 371.598,209.397 370.5,208.5 Z"/></g>
<g><path style="opacity:1" fill="#969592" d="M 118.5,214.5 C 119.833,214.5 121.167,214.5 122.5,214.5C 122.67,215.822 122.337,216.989 121.5,218C 122.624,218.839 123.291,220.006 123.5,221.5C 120.56,226.208 121.227,230.875 125.5,235.5C 123.146,237.246 122.146,239.579 122.5,242.5C 117.59,242.23 117.257,243.23 121.5,245.5C 122.833,249.5 122.833,253.5 121.5,257.5C 120.962,259.117 120.629,260.784 120.5,262.5C 117.75,246.771 117.084,230.771 118.5,214.5 Z"/></g>
<g><path style="opacity:1" fill="#5c5c59" d="M 377.5,221.5 C 379.167,222.167 380.833,222.833 382.5,223.5C 378.445,223.824 374.445,223.491 370.5,222.5C 372.743,221.526 375.076,221.192 377.5,221.5 Z"/></g>
<g><path style="opacity:1" fill="#6d6c6a" d="M 316.5,211.5 C 323.446,214.058 323.113,215.558 315.5,216C 316.898,218.398 318.898,220.065 321.5,221C 317.109,221.683 312.776,222.516 308.5,223.5C 309.568,222.566 310.901,222.232 312.5,222.5C 313.053,218.505 314.386,214.839 316.5,211.5 Z"/></g>
<g><path style="opacity:1" fill="#797976" d="M 190.5,206.5 C 190.784,209.777 190.451,212.943 189.5,216C 190.793,216.49 192.127,216.657 193.5,216.5C 193.179,218.048 192.179,218.715 190.5,218.5C 188.838,227.689 188.004,237.022 188,246.5C 187.439,247.022 186.772,247.355 186,247.5C 184.588,246.314 183.421,244.981 182.5,243.5C 181.207,241.704 179.707,240.037 178,238.5C 177.517,237.552 177.351,236.552 177.5,235.5C 180.773,235.529 181.44,234.196 179.5,231.5C 180.949,229.087 181.616,226.42 181.5,223.5C 180.816,220.139 180.15,216.805 179.5,213.5C 178.448,213.649 177.448,213.483 176.5,213C 177.737,212.768 178.737,212.268 179.5,211.5C 181.462,213.982 183.295,216.649 185,219.5C 186.011,220.337 187.178,220.67 188.5,220.5C 188.362,215.586 189.028,210.919 190.5,206.5 Z"/></g>
<g><path style="opacity:1" fill="#969592" d="M 316.5,209.5 C 316.5,210.167 316.5,210.833 316.5,211.5C 314.386,214.839 313.053,218.505 312.5,222.5C 310.901,222.232 309.568,222.566 308.5,223.5C 308.5,223.833 308.5,224.167 308.5,224.5C 308.5,225.167 308.833,225.5 309.5,225.5C 311.291,226.391 313.124,227.391 315,228.5C 315.667,231.5 315.667,234.5 315,237.5C 314.586,237.957 314.086,238.291 313.5,238.5C 309.533,235.465 307.033,231.465 306,226.5C 304.933,225.809 303.766,225.309 302.5,225C 301.748,224.329 301.414,223.496 301.5,222.5C 302.124,222.083 302.457,221.416 302.5,220.5C 301.238,217.978 300.571,215.311 300.5,212.5C 302.028,212.483 302.528,211.816 302,210.5C 300.989,209.663 299.822,209.33 298.5,209.5C 298.532,207.381 297.532,206.048 295.5,205.5C 287.684,204.508 279.684,204.174 271.5,204.5C 272.681,202.933 274.347,202.099 276.5,202C 282.902,201.182 289.235,201.516 295.5,203C 298.532,204.578 301.032,206.745 303,209.5C 303.333,212.833 303.667,216.167 304,219.5C 305.733,221.602 307.733,221.935 310,220.5C 312.235,216.669 314.402,213.003 316.5,209.5 Z"/></g>
<g><path style="opacity:1" fill="#6b6a68" d="M 300.5,212.5 C 300.571,215.311 301.238,217.978 302.5,220.5C 302.457,221.416 302.124,222.083 301.5,222.5C 300.244,222.461 299.244,222.961 298.5,224C 299.71,225.039 300.71,226.206 301.5,227.5C 297.154,227.666 292.821,227.499 288.5,227C 290.886,226.716 291.552,225.716 290.5,224C 293.998,222.374 297.665,221.207 301.5,220.5C 300.461,218.469 298.795,217.136 296.5,216.5C 297.246,215.264 297.579,213.93 297.5,212.5C 298.5,212.5 299.5,212.5 300.5,212.5 Z"/></g>
<g><path style="opacity:1" fill="#afadaa" d="M 362.5,202.5 C 348.104,200.916 333.771,201.25 319.5,203.5C 319.539,206.089 318.539,208.089 316.5,209.5C 314.402,213.003 312.235,216.669 310,220.5C 307.733,221.935 305.733,221.602 304,219.5C 303.667,216.167 303.333,212.833 303,209.5C 301.032,206.745 298.532,204.578 295.5,203C 289.235,201.516 282.902,201.182 276.5,202C 274.347,202.099 272.681,202.933 271.5,204.5C 270.292,205.234 268.959,205.567 267.5,205.5C 267.719,206.675 267.386,207.675 266.5,208.5C 264.739,209.035 263.406,210.035 262.5,211.5C 259.395,214.926 255.395,216.26 250.5,215.5C 247.794,211.776 245.461,207.776 243.5,203.5C 246.877,203.69 249.544,205.19 251.5,208C 254.099,208.769 256.599,208.602 259,207.5C 259.333,208.167 259.667,208.833 260,209.5C 271.934,199.161 285.434,196.661 300.5,202C 302.416,205.366 305.083,207.866 308.5,209.5C 313.011,206.505 317.678,203.672 322.5,201C 333.456,199.483 344.456,199.15 355.5,200C 358.191,200.156 360.524,200.989 362.5,202.5 Z"/></g>
<g><path style="opacity:1" fill="#252523" d="M 370.5,208.5 C 371.598,209.397 371.598,210.23 370.5,211C 372.266,212.698 374.266,214.031 376.5,215C 375.207,215.49 373.873,215.657 372.5,215.5C 372.281,216.675 372.614,217.675 373.5,218.5C 375.46,219.683 376.793,220.683 377.5,221.5C 375.076,221.192 372.743,221.526 370.5,222.5C 374.445,223.491 378.445,223.824 382.5,223.5C 382.737,224.791 382.404,225.791 381.5,226.5C 380.5,226.5 379.5,226.5 378.5,226.5C 379.014,228.512 379.18,230.512 379,232.5C 376.906,236.434 374.739,240.268 372.5,244C 364.132,248.838 355.132,250.672 345.5,249.5C 345.222,253.645 344.888,257.812 344.5,262C 346.847,263.581 346.847,264.914 344.5,266C 345.833,267 345.833,268 344.5,269C 337.167,269.667 329.833,269.667 322.5,269C 321.956,268.283 321.289,267.783 320.5,267.5C 320.714,265.856 320.38,264.356 319.5,263C 320.894,261.261 321.561,259.261 321.5,257C 320.675,252.192 320.675,247.192 321.5,242C 321.294,240.135 320.628,238.468 319.5,237C 320.489,233.553 321.156,230.053 321.5,226.5C 317.348,224.938 313.015,224.272 308.5,224.5C 308.5,224.167 308.5,223.833 308.5,223.5C 312.776,222.516 317.109,221.683 321.5,221C 318.898,220.065 316.898,218.398 315.5,216C 323.113,215.558 323.446,214.058 316.5,211.5C 316.5,210.833 316.5,210.167 316.5,209.5C 318.59,209.55 319.923,208.55 320.5,206.5C 333.487,205.334 346.487,205.167 359.5,206C 363.121,207.138 366.788,207.972 370.5,208.5 Z"/></g>
<g><path style="opacity:1" fill="#5a5a58" d="M 336.5,222.5 C 343.822,223.038 351.155,223.371 358.5,223.5C 358.5,224.5 358.5,225.5 358.5,226.5C 354.515,226.44 352.848,228.44 353.5,232.5C 350.5,232.5 347.5,232.5 344.5,232.5C 344.84,229.856 344.173,227.523 342.5,225.5C 339.215,224.676 335.882,224.176 332.5,224C 334.058,223.79 335.391,223.29 336.5,222.5 Z"/></g>
<g><path style="opacity:1" fill="#252523" d="M 250.5,215.5 C 250.5,215.833 250.5,216.167 250.5,216.5C 248.255,217.623 245.921,218.789 243.5,220C 243.957,220.414 244.291,220.914 244.5,221.5C 243.051,222.172 241.718,222.839 240.5,223.5C 231.475,223.168 222.475,223.502 213.5,224.5C 214.246,225.736 214.579,227.07 214.5,228.5C 221.167,228.5 227.833,228.5 234.5,228.5C 235.873,228.343 237.207,228.51 238.5,229C 241.796,231.801 242.129,234.801 239.5,238C 240.955,240.558 241.288,243.058 240.5,245.5C 231.494,245.334 222.494,245.5 213.5,246C 211.833,247 210.167,248 208.5,249C 212.716,250.204 217.049,250.87 221.5,251C 231.342,251.825 241.009,251.658 250.5,250.5C 252.494,247.531 254.494,244.531 256.5,241.5C 255.696,239.236 256.363,237.236 258.5,235.5C 257.975,234.808 257.308,234.308 256.5,234C 260.427,232.848 261.094,230.848 258.5,228C 256.5,227.667 254.5,227.333 252.5,227C 251.663,225.989 251.33,224.822 251.5,223.5C 255.976,222.705 259.976,220.872 263.5,218C 263.815,216.098 263.815,214.098 263.5,212C 265.473,211.505 267.473,211.338 269.5,211.5C 269.178,209.278 269.845,207.444 271.5,206C 279.493,205.5 287.493,205.334 295.5,205.5C 297.532,206.048 298.532,207.381 298.5,209.5C 299.822,209.33 300.989,209.663 302,210.5C 302.528,211.816 302.028,212.483 300.5,212.5C 299.5,212.5 298.5,212.5 297.5,212.5C 297.579,213.93 297.246,215.264 296.5,216.5C 298.795,217.136 300.461,218.469 301.5,220.5C 297.665,221.207 293.998,222.374 290.5,224C 291.552,225.716 290.886,226.716 288.5,227C 292.821,227.499 297.154,227.666 301.5,227.5C 303.758,227.775 304.092,228.775 302.5,230.5C 303.66,232.711 304.993,234.711 306.5,236.5C 306.36,238.124 307.027,239.29 308.5,240C 307.692,240.308 307.025,240.808 306.5,241.5C 308.385,242.197 308.718,243.197 307.5,244.5C 309.5,245.167 311.5,245.833 313.5,246.5C 312.311,247.429 310.978,247.762 309.5,247.5C 309.5,249.833 309.5,252.167 309.5,254.5C 310.552,254.351 311.552,254.517 312.5,255C 311.044,255.423 310.544,256.256 311,257.5C 313.719,258.78 316.219,260.447 318.5,262.5C 317.624,263.251 316.624,263.751 315.5,264C 316.308,264.308 316.975,264.808 317.5,265.5C 316.37,266.622 315.703,267.956 315.5,269.5C 315.167,269.5 314.833,269.5 314.5,269.5C 307.825,269.666 301.158,269.5 294.5,269C 293.289,267.887 293.289,266.72 294.5,265.5C 293.975,264.808 293.308,264.308 292.5,264C 293.624,263.751 294.624,263.251 295.5,262.5C 288.189,261.335 280.856,261.169 273.5,262C 271.192,264.128 269.526,266.628 268.5,269.5C 261.08,269.797 253.746,269.464 246.5,268.5C 247.163,265.336 248.83,262.836 251.5,261C 249.711,260.086 247.877,259.253 246,258.5C 243.759,258.68 243.259,259.513 244.5,261C 240.854,263.166 241.187,265.166 245.5,267C 241.975,267.179 238.641,267.679 235.5,268.5C 218.341,269.497 201.008,269.83 183.5,269.5C 185.658,267.78 188.325,266.947 191.5,267C 190.687,265.686 189.687,264.519 188.5,263.5C 189.5,262.667 190.5,261.833 191.5,261C 191.658,258.772 190.991,256.605 189.5,254.5C 191.5,254.5 193.5,254.5 195.5,254.5C 195.5,253.5 195.5,252.5 195.5,251.5C 192.193,251.937 189.193,251.27 186.5,249.5C 188.337,248.162 190.003,246.662 191.5,245C 191.097,243.527 190.43,242.194 189.5,241C 189.138,238.734 189.805,236.568 191.5,234.5C 190.344,231.94 190.344,229.44 191.5,227C 189.893,225.951 189.227,224.451 189.5,222.5C 191.942,222.646 192.609,221.813 191.5,220C 193.714,218.727 196.047,217.727 198.5,217C 196.866,216.506 195.199,216.34 193.5,216.5C 192.127,216.657 190.793,216.49 189.5,216C 190.451,212.943 190.784,209.777 190.5,206.5C 207.338,205.173 224.338,205.173 241.5,206.5C 243.27,209.193 243.937,212.193 243.5,215.5C 245.833,215.5 248.167,215.5 250.5,215.5 Z"/></g>
<g><path style="opacity:1" fill="#595957" d="M 240.5,245.5 C 239.2,246.827 237.867,248.16 236.5,249.5C 241.12,250.493 245.786,250.827 250.5,250.5C 241.009,251.658 231.342,251.825 221.5,251C 217.049,250.87 212.716,250.204 208.5,249C 210.167,248 211.833,247 213.5,246C 222.494,245.5 231.494,245.334 240.5,245.5 Z"/></g>
<g><path style="opacity:1" fill="#51504f" d="M 279.5,232.5 C 280.833,232.5 282.167,232.5 283.5,232.5C 284.467,236.168 285.8,239.668 287.5,243C 284.854,243.497 282.187,243.664 279.5,243.5C 278.484,240.8 278.484,238.134 279.5,235.5C 278.975,234.808 278.308,234.308 277.5,234C 278.416,233.722 279.082,233.222 279.5,232.5 Z"/></g>
<g><path style="opacity:1" fill="#5e5e5c" d="M 240.5,223.5 C 237.628,224.325 234.628,225.159 231.5,226C 232.571,226.852 233.571,227.685 234.5,228.5C 227.833,228.5 221.167,228.5 214.5,228.5C 214.579,227.07 214.246,225.736 213.5,224.5C 222.475,223.502 231.475,223.168 240.5,223.5 Z"/></g>
<g><path style="opacity:1" fill="#949390" d="M 262.5,211.5 C 260.658,217.336 256.658,220.669 250.5,221.5C 250.918,225.731 251.585,229.898 252.5,234C 252.333,235.833 252.167,237.667 252,239.5C 250.422,243.643 248.089,244.309 245,241.5C 244.537,237.162 244.037,232.829 243.5,228.5C 243.88,222.036 247.213,218.369 253.5,217.5C 252.675,216.614 251.675,216.281 250.5,216.5C 250.5,216.167 250.5,215.833 250.5,215.5C 255.395,216.26 259.395,214.926 262.5,211.5 Z"/></g>
<g><path style="opacity:1" fill="#252523" d="M 176.5,210.5 C 177.791,210.263 178.791,210.596 179.5,211.5C 178.737,212.268 177.737,212.768 176.5,213C 177.448,213.483 178.448,213.649 179.5,213.5C 180.15,216.805 180.816,220.139 181.5,223.5C 181.616,226.42 180.949,229.087 179.5,231.5C 181.44,234.196 180.773,235.529 177.5,235.5C 177.351,236.552 177.517,237.552 178,238.5C 179.707,240.037 181.207,241.704 182.5,243.5C 182.951,248.361 183.951,253.027 185.5,257.5C 177.606,257.527 177.606,258.193 185.5,259.5C 182.893,260.318 180.226,260.818 177.5,261C 185.5,261.667 185.5,262.333 177.5,263C 173.795,266.612 169.462,268.779 164.5,269.5C 151.5,269.5 138.5,269.5 125.5,269.5C 124.015,267.066 122.348,264.733 120.5,262.5C 120.629,260.784 120.962,259.117 121.5,257.5C 122.931,256.918 124.264,256.085 125.5,255C 124.228,251.683 122.895,248.516 121.5,245.5C 117.257,243.23 117.59,242.23 122.5,242.5C 122.146,239.579 123.146,237.246 125.5,235.5C 121.227,230.875 120.56,226.208 123.5,221.5C 123.291,220.006 122.624,218.839 121.5,218C 122.337,216.989 122.67,215.822 122.5,214.5C 121.167,214.5 119.833,214.5 118.5,214.5C 120.931,213.259 120.931,212.092 118.5,211C 119.399,209.348 120.399,207.848 121.5,206.5C 135.808,205.403 150.141,205.236 164.5,206C 168.467,207.827 172.467,209.327 176.5,210.5 Z"/></g>
<g><path style="opacity:1" fill="#5d5c5b" d="M 144.5,245.5 C 148.311,244.355 152.311,244.188 156.5,245C 158.619,247.218 158.952,249.718 157.5,252.5C 153.906,253.426 150.24,253.759 146.5,253.5C 146.889,250.447 146.223,247.78 144.5,245.5 Z"/></g>
<g><path style="opacity:1" fill="#555553" d="M 146.5,221.5 C 149.85,221.335 153.183,221.502 156.5,222C 157.982,224.592 157.648,226.925 155.5,229C 152.518,229.498 149.518,229.665 146.5,229.5C 146.5,228.5 146.5,227.5 146.5,226.5C 147.873,226.657 149.207,226.49 150.5,226C 148.5,225.667 146.5,225.333 144.5,225C 145.973,224.29 146.64,223.124 146.5,221.5 Z"/></g>
<g><path style="opacity:1" fill="#7b7a77" d="M 131.5,203.5 C 143.171,203.333 154.838,203.5 166.5,204C 170.346,205.59 173.68,207.757 176.5,210.5C 172.467,209.327 168.467,207.827 164.5,206C 150.141,205.236 135.808,205.403 121.5,206.5C 124.288,204.024 127.622,203.024 131.5,203.5 Z"/></g>
<g><path style="opacity:1" fill="#8d8c89" d="M 362.5,202.5 C 365.466,204.137 368.132,206.137 370.5,208.5C 366.788,207.972 363.121,207.138 359.5,206C 346.487,205.167 333.487,205.334 320.5,206.5C 319.923,208.55 318.59,209.55 316.5,209.5C 318.539,208.089 319.539,206.089 319.5,203.5C 333.771,201.25 348.104,200.916 362.5,202.5 Z"/></g>
<g><path style="opacity:1" fill="#949390" d="M 231.5,200.5 C 235.603,201.09 239.603,202.09 243.5,203.5C 245.461,207.776 247.794,211.776 250.5,215.5C 248.167,215.5 245.833,215.5 243.5,215.5C 243.937,212.193 243.27,209.193 241.5,206.5C 224.338,205.173 207.338,205.173 190.5,206.5C 189.028,210.919 188.362,215.586 188.5,220.5C 187.178,220.67 186.011,220.337 185,219.5C 183.295,216.649 181.462,213.982 179.5,211.5C 178.791,210.596 177.791,210.263 176.5,210.5C 173.68,207.757 170.346,205.59 166.5,204C 154.838,203.5 143.171,203.333 131.5,203.5C 143.66,202.34 155.993,202.173 168.5,203C 173.303,205.403 178.303,207.236 183.5,208.5C 184.5,208.333 185.5,208.167 186.5,208C 187.061,206.324 188.061,204.991 189.5,204C 193.347,202.384 197.347,201.384 201.5,201C 211.494,200.5 221.494,200.334 231.5,200.5 Z"/></g>
<g><path style="opacity:1" fill="#666563" d="M 246.5,268.5 C 242.833,268.5 239.167,268.5 235.5,268.5C 238.641,267.679 241.975,267.179 245.5,267C 241.187,265.166 240.854,263.166 244.5,261C 243.259,259.513 243.759,258.68 246,258.5C 247.877,259.253 249.711,260.086 251.5,261C 248.83,262.836 247.163,265.336 246.5,268.5 Z"/></g>
<g><path style="opacity:1" fill="#767573" d="M 314.5,269.5 C 308.355,270.49 302.022,270.823 295.5,270.5C 294.504,270.586 293.671,270.252 293,269.5C 292.727,267.671 291.893,266.171 290.5,265C 287.592,264.007 284.592,263.507 281.5,263.5C 276.802,262.547 273.469,264.214 271.5,268.5C 270.391,268.557 269.391,268.89 268.5,269.5C 269.526,266.628 271.192,264.128 273.5,262C 280.856,261.169 288.189,261.335 295.5,262.5C 294.624,263.251 293.624,263.751 292.5,264C 293.308,264.308 293.975,264.808 294.5,265.5C 293.289,266.72 293.289,267.887 294.5,269C 301.158,269.5 307.825,269.666 314.5,269.5 Z"/></g>
<g><path style="opacity:1" fill="#7f7e7b" d="M 125.5,269.5 C 138.5,269.5 151.5,269.5 164.5,269.5C 164.082,270.222 163.416,270.722 162.5,271C 151.5,271.667 140.5,271.667 129.5,271C 127.942,270.79 126.609,270.29 125.5,269.5 Z"/></g>
<g><path style="opacity:1" fill="#878683" d="M 235.5,268.5 C 239.167,268.5 242.833,268.5 246.5,268.5C 253.746,269.464 261.08,269.797 268.5,269.5C 269.391,268.89 270.391,268.557 271.5,268.5C 270.942,269.79 269.942,270.623 268.5,271C 265.333,271.167 262.167,271.333 259,271.5C 234.851,271.403 210.685,271.236 186.5,271C 185.263,270.768 184.263,270.268 183.5,269.5C 201.008,269.83 218.341,269.497 235.5,268.5 Z"/></g>
<g><path style="opacity:1" fill="#2d2d2b" d="M 227.5,294.5 C 228.675,294.281 229.675,294.614 230.5,295.5C 232.065,300.536 233.731,300.369 235.5,295C 236.332,294.312 236.998,294.479 237.5,295.5C 233.511,304.863 230.177,304.53 227.5,294.5 Z"/></g>
<g><path style="opacity:1" fill="#363634" d="M 245.5,294.5 C 246.833,294.5 248.167,294.5 249.5,294.5C 251.84,302.638 249.173,304.638 241.5,300.5C 242.467,298.21 243.8,296.21 245.5,294.5 Z"/></g>
<g><path style="opacity:1" fill="#2e2e2c" d="M 263.5,294.5 C 268.614,293.607 271.114,295.607 271,300.5C 268.847,302.444 266.347,302.944 263.5,302C 260.914,299.506 260.914,297.006 263.5,294.5 Z"/></g>
<g><path style="opacity:1" fill="#b3b2ae" d="M 264.5,296.5 C 267.5,296.167 268.833,297.5 268.5,300.5C 267.167,300.5 265.833,300.5 264.5,300.5C 264.5,299.167 264.5,297.833 264.5,296.5 Z"/></g>
<g><path style="opacity:1" fill="#3b3b39" d="M 254.5,300.5 C 255.675,300.281 256.675,300.614 257.5,301.5C 255.948,302.798 254.948,302.465 254.5,300.5 Z"/></g>
<g><path style="opacity:1" fill="#434340" d="M 231.5,311.5 C 229.016,310.036 229.016,308.369 231.5,306.5C 233.343,305.061 235.01,305.228 236.5,307C 234.866,307.494 233.199,307.66 231.5,307.5C 231.5,308.833 231.5,310.167 231.5,311.5 Z"/></g>
<g><path style="opacity:1" fill="#40403e" d="M 220.5,312.5 C 220.167,312.5 219.833,312.5 219.5,312.5C 218.862,306.541 220.362,305.541 224,309.5C 224.249,308.376 224.749,307.376 225.5,306.5C 227.042,313.676 225.542,314.343 221,308.5C 220.51,309.793 220.343,311.127 220.5,312.5 Z"/></g>
<g><path style="opacity:1" fill="#424240" d="M 273.5,311.5 C 271.611,312.742 269.611,312.742 267.5,311.5C 267.201,306.786 269.201,305.12 273.5,306.5C 274.788,308.299 274.788,309.965 273.5,311.5 Z"/></g>
<g><path style="opacity:1" fill="#3f3e3c" d="M 283.5,311.5 C 284.833,311.833 284.833,312.167 283.5,312.5C 281.801,312.66 280.134,312.494 278.5,312C 281.167,310.667 281.167,309.333 278.5,308C 279.5,307.5 280.5,307 281.5,306.5C 282.17,308.291 282.837,309.958 283.5,311.5 Z"/></g>
<g><path style="opacity:1" fill="#494846" d="M 290.5,305.5 C 294.184,306.372 295.184,308.539 293.5,312C 286.538,312.753 285.538,310.587 290.5,305.5 Z"/></g>
<g><path style="opacity:1" fill="#b4b2af" d="M 289.5,307.5 C 293.588,307.218 294.088,307.885 291,309.5C 289.97,309.164 289.47,308.497 289.5,307.5 Z"/></g>
<g><path style="opacity:1" fill="#c7c5c0" d="M 273.5,311.5 C 271.335,311.884 269.668,311.217 268.5,309.5C 269.668,307.783 271.335,307.116 273.5,307.5C 273.5,308.833 273.5,310.167 273.5,311.5 Z"/></g>
<g><path style="opacity:1" fill="#373735" d="M 203.5,311.5 C 203.5,311.167 203.5,310.833 203.5,310.5C 205.455,311.323 207.455,311.49 209.5,311C 207.975,309.991 206.308,309.491 204.5,309.5C 204.977,305.927 206.644,305.094 209.5,307C 208.167,307.333 206.833,307.667 205.5,308C 208.525,308.154 210.191,309.654 210.5,312.5C 208.05,312.702 205.717,312.369 203.5,311.5 Z"/></g>
<g><path style="opacity:1" fill="#3d3d3a" d="M 231.5,311.5 C 233.915,311.373 236.249,311.207 238.5,311C 236.181,312.728 233.847,312.895 231.5,311.5 Z"/></g>
<g><path style="opacity:1" fill="#363634" d="M 248.5,311.5 C 248.158,312.338 247.492,312.672 246.5,312.5C 244.833,312.5 243.167,312.5 241.5,312.5C 241.5,310.5 241.5,308.5 241.5,306.5C 243.857,306.337 246.19,306.503 248.5,307C 241.497,307.497 241.163,308.163 247.5,309C 241.097,310.423 241.431,311.257 248.5,311.5 Z"/></g>
<g><path style="opacity:1" fill="#383836" d="M 263.5,312.5 C 261.5,312.5 259.5,312.5 257.5,312.5C 258.219,310.112 259.885,308.612 262.5,308C 256.548,309.036 256.214,308.202 261.5,305.5C 264.375,308.372 263.709,310.206 259.5,311C 261.058,311.21 262.391,311.71 263.5,312.5 Z"/></g>
</svg>
